<svg width="75" height="65" xmlns="http://www.w3.org/2000/svg"><g fill="none" fill-rule="evenodd"><path fill="#55ACEE" d="M0 32.5L18.75.024h37.5L75 32.5 56.25 64.976h-37.5z"/><path d="M53 22.955c-1.096.507-2.295.839-3.527.996a6.32 6.32 0 0 0 2.705-3.496 12.524 12.524 0 0 1-3.904 1.538A6.068 6.068 0 0 0 43.788 20c-3.39 0-6.148 2.832-6.148 6.311 0 .49.052.98.155 1.434-5.103-.262-9.64-2.78-12.672-6.591a6.357 6.357 0 0 0-.839 3.164c0 2.185 1.079 4.126 2.74 5.245a6.087 6.087 0 0 1-2.791-.787v.088c0 3.06 2.123 5.612 4.931 6.188a6.201 6.201 0 0 1-2.79.123c.787 2.5 3.047 4.335 5.736 4.388A12.14 12.14 0 0 1 23 42.185C25.757 43.951 28.993 45 32.452 45c11.301 0 17.5-9.615 17.5-17.955 0-.28 0-.542-.017-.821A12.546 12.546 0 0 0 53 22.954z" fill="#FFF"/></g></svg>