<svg width="75" height="65" xmlns="http://www.w3.org/2000/svg"><g fill="none" fill-rule="evenodd"><path fill="#BDC3C7" d="M0 32.5L18.75.024h37.5L75 32.5 56.25 64.976h-37.5z"/><path d="M29.18 23.792L29 20.808c.215-.047.61-.123 1.184-.229.573-.105.962-.17 1.165-.193.203-.023.562-.07 1.076-.14s.962-.117 1.345-.14c.383-.024.885-.047 1.506-.07A53.573 53.573 0 0 1 37.285 20c2.51 0 4.381.445 5.613 1.334 1.231.89 1.847 2.26 1.847 4.108 0 .96-.21 1.844-.628 2.651a8.504 8.504 0 0 1-1.542 2.125c-.61.608-1.22 1.229-1.83 1.86-.609.633-1.147 1.405-1.613 2.318-.466.913-.735 1.92-.807 3.02h-3.622c-.024-1.17.137-2.253.484-3.248.346-.995.783-1.826 1.309-2.493a32.586 32.586 0 0 1 1.596-1.879 15.614 15.614 0 0 0 1.416-1.773c.407-.597.622-1.188.646-1.773.048-.936-.233-1.621-.843-2.054-.61-.433-1.608-.65-2.995-.65-1.912 0-4.291.082-7.137.246zm6.814 16.398h1.04c.598 0 1.01.11 1.237.333.227.223.34.615.34 1.176v1.791c0 .562-.113.954-.34 1.176-.227.223-.64.334-1.237.334h-1.04c-.598 0-1.01-.111-1.238-.334-.227-.222-.34-.614-.34-1.176V41.7c0-.562.113-.954.34-1.177.227-.222.64-.333 1.238-.333z" fill="#FFF"/></g></svg>